<?xml version="1.0" encoding="UTF-8"?>
<svg id="Layer_1" xmlns="http://www.w3.org/2000/svg" version="1.1" viewBox="0 0 1441.4 463.8">
  <!-- Generator: Adobe Illustrator 29.3.1, SVG Export Plug-In . SVG Version: 2.1.0 Build 151)  -->
  <defs>
    <style>
      .st0 {
        fill: #f4f7fc;
      }

      .st1 {
        fill: #f0b825;
      }
    </style>
  </defs>
  <g id="White">
    <g>
      <path class="st0" d="M1203.4,163.2c2.2-7.3,5.1-14.2,8.6-20.8l-14.2-14.3,44.2-44.2h0c0,0,0,0,0,0l14.2,14.2c6.5-3.5,13.4-6.4,20.7-8.6v-20.2h62.6v20.2c7.2,2.1,14.2,5,20.7,8.6l11.4-11.4,2.8-2.8h0c0,0,0,0,0,0l22.1,22.1,22.1,22.1-14.2,14.3c3.6,6.6,6.4,13.5,8.6,20.8h20.1v31.2h-81.2c0-24.2-19.6-43.8-43.8-43.8s-43.8,19.6-43.8,43.8h-81.2v-31.2h20.2Z"/>
      <polygon class="st0" points="1433.2 163.2 1427.1 146.8 1426.6 159.2 1423.2 153.7 1423.3 168.4 1433.2 163.2"/>
      <polygon class="st0" points="1374.5 83.9 1361 76.2 1370.7 94.1 1374.5 83.9"/>
      <polygon class="st0" points="1276.9 69.4 1255.4 74.1 1272.1 76 1266.5 77.9 1281.2 78.8 1276.9 69.4"/>
      <polygon class="st0" points="1197.7 128.1 1190.9 139.6 1205.1 129.9 1197.7 128.1"/>
    </g>
    <path class="st0" d="M310.1,375.1l3.6,3.6-56.3,56.3-3.6-3.5-14.6-14.6c-8.4,4.5-17.2,8.2-26.5,11v25.7h-79.6v-25.7c-9.3-2.8-18.1-6.5-26.5-11l-14.6,14.6-3.6,3.5-56.3-56.3,3.5-3.6,14.6-14.6c-4.5-8.4-8.2-17.2-11-26.5H13.7v-79.6h25.7c2.8-9.3,6.5-18.1,11-26.5l-14.6-14.6-3.5-3.6,28.1-28.1,28.1-28.1,18.2,18.2c8.4-4.5,17.2-8.2,26.5-11v-25.7h79.6v25.7c9.3,2.8,18.1,6.5,26.5,11l18.2-18.2,28.1,28.1,28.2,28.1-3.6,3.6-14.6,14.6-26.5,26.5h-30.9c-13.4-22-37.6-36.6-65.3-36.6-42.2,0-76.4,34.2-76.4,76.4s34.2,76.4,76.4,76.4,51.8-14.7,65.3-36.6h30.9l26.5,26.5,14.6,14.6h0Z"/>
    <path class="st0" d="M369.9,322.6h-8.2v32.3h-39.4v-119h55.6c9.2,0,17.3,1.9,24.5,5.6,7.1,3.7,12.7,9,16.7,15.9,4,6.9,6,14.7,6,23.5s-1.4,13-4.2,18.5-6.9,10.1-12.2,13.8l20.7,41.7h-44l-15.3-32.3h0ZM361.8,292.3h9.7c3.8,0,6.9-1.1,9.2-3.2,2.3-2.2,3.4-4.9,3.4-8.2s-1.1-6-3.4-8.1c-2.3-2.1-5.3-3.1-9.2-3.1h-9.7v22.6Z"/>
    <path class="st0" d="M522.4,322.9v32h-82.3v-119h81.4v32h-42.3v12.9h37.9v29.2h-37.9v12.9h43.2Z"/>
    <path class="st0" d="M657.4,235.9l-46.9,119h-36.2l-46.9-119h46.4l18.7,63.1,18.5-63.1h46.4Z"/>
    <path class="st0" d="M873.1,318.2v35.7h-80.1v-119h40.5v83.3h39.6Z"/>
    <path class="st0" d="M907.7,351c-8.3-4.2-14.8-10.1-19.4-17.8-4.6-7.7-6.9-16.7-6.9-26.9v-71.4h41.1v71.6c0,4.3,1.3,7.8,3.8,10.5,2.6,2.7,5.9,4,10.1,4s7.6-1.3,10.1-4c2.6-2.7,3.8-6.2,3.8-10.5v-71.6h41.1v71.4c0,10.2-2.3,19.2-6.9,26.9-4.6,7.7-11.1,13.7-19.4,17.8s-17.9,6.3-28.8,6.3-20.5-2.1-28.8-6.3h0Z"/>
    <path class="st0" d="M1106,269.4h-32.1v84.5h-39.8v-84.5h-32.1v-34.5h104v34.5Z"/>
    <path class="st0" d="M1117.8,234.9h40.5v119h-40.5v-119Z"/>
    <path class="st0" d="M1203.9,349.4c-10.3-5.2-18.2-12.6-23.9-22.1-5.7-9.5-8.5-20.5-8.5-33s2.8-23.5,8.5-33,13.6-16.9,23.9-22.1c10.3-5.2,22.1-7.8,35.6-7.8s25.4,2.6,35.6,7.8c10.3,5.2,18.2,12.6,23.9,22.1,5.7,9.5,8.5,20.5,8.5,33s-2.8,23.5-8.5,33c-5.7,9.5-13.6,16.9-23.9,22.1-10.3,5.2-22.1,7.8-35.6,7.8s-25.4-2.6-35.6-7.8ZM1258.2,313.6c4.8-4.9,7.1-11.3,7.1-19.2s-2.4-14.3-7.1-19.2-11-7.3-18.7-7.3-13.9,2.4-18.7,7.3-7.1,11.3-7.1,19.2,2.4,14.3,7.1,19.2,11,7.3,18.7,7.3,13.9-2.4,18.7-7.3Z"/>
    <path class="st0" d="M1432.8,234.9v119h-32.3l-42-56.3v56.3h-37.7v-119h33.5l40.8,53.9v-53.9h37.7Z"/>
    <path class="st0" d="M773.8,278.7c-1.1-3.7-2.6-7.2-4.5-10.5l3.1-3.1-24.9-24.9-5.2,5.2c-2.7-1-5.5-1.9-8.4-2.6v-6h-35.3v6c-2.9.7-5.7,1.5-8.4,2.6l-5.2-5.2-24.9,24.9,3.1,3.1c-1.9,3.3-3.4,6.8-4.5,10.5h-5.3v35.3h5.3c1.1,3.7,2.6,7.2,4.5,10.5l-3.1,3.1,24.9,24.9,5.2-5.2c2.7,1,5.5,1.9,8.4,2.6v6h35.3v-6c2.9-.7,5.7-1.5,8.4-2.6l5.2,5.2,24.9-24.9-3.1-3.1c1.9-3.3,3.4-6.8,4.5-10.5h5.3v-35.3h-5.3ZM734,312c-.3.4-.7.9-1.2,1.3-.2.2-.5.5-.7.7-3.8,3.5-8.5,5.4-14.2,5.7-.5,0-1.1,0-1.6,0s-1.1,0-1.6,0c-5.7-.3-10.4-2.2-14.2-5.7-.2-.2-.5-.5-.7-.7-.4-.4-.8-.8-1.2-1.3-3-3.6-4.7-8.1-5.1-13.4,0-.7,0-1.5,0-2.2s0-1.5,0-2.2c.4-5.3,2-9.8,5.1-13.4.3-.4.7-.9,1.2-1.3.2-.2.5-.5.7-.7,3.8-3.5,8.5-5.4,14.2-5.7.5,0,1.1,0,1.6,0s1.1,0,1.6,0c5.7.3,10.4,2.2,14.2,5.7.2.2.5.5.7.7.4.4.8.8,1.2,1.3,3,3.6,4.7,8.1,5.1,13.4,0,.7,0,1.5,0,2.2s0,1.5,0,2.2c-.4,5.3-2,9.8-5.1,13.4Z"/>
  </g>
  <g id="UI">
    <polygon class="st1" points="829.7 125.7 911.1 139.7 885.6 106.7 954.3 126.7 932.7 70.7 1033.1 113.7 1006.4 65.7 1075 83.7 1120 117.9 1156.3 68 1156.3 194.4 947.9 194.7 865.3 165.7 829.7 125.7"/>
    <polygon class="st1" points="833.4 30 845.9 45 884.2 50 858.8 18.4 833.4 30"/>
    <polygon class="st1" points="548.7 61.7 559.9 85.1 592.6 73.9 548.7 61.7"/>
    <polygon class="st1" points="1104.5 28.1 1044.6 1.4 1044.6 24.7 1076.2 33.9 1104.5 28.1"/>
    <polygon class="st1" points="363.4 88.6 384.2 99.8 405 90.8 375.1 84.8 363.4 88.6"/>
    <polygon class="st1" points="532 153.4 490.5 171.2 536 183.4 532 153.4"/>
    <polygon class="st1" points="696.7 53.4 716.4 76.7 781.4 101.2 775.4 76.7 752.9 69.6 729.4 36.7 722.9 58.2 696.7 53.4"/>
    <polygon class="st1" points="644 151.1 660.4 136.7 701.2 141.3 749.4 162.7 688.4 169.7 644 151.1"/>
    <g>
      <path class="st1" d="M1194.1,436.8v4.4h46.7v10.4h-58.1v-14.8c0-3.2.3-5.9.9-8.1.7-2.5,2.1-4.6,4.1-6.2,1.9-1.5,4.5-2.5,7.9-3.1,3.1-.6,7.2-.9,12.2-.9h11.8c3.3,0,5.9-.1,7.7-.3,2-.2,2.8-.7,3-.8.2-.2.5-.5.6-1.2.2-1.1.3-2.6.3-4.5s-.3-3.5-.5-4.2c-.2-.5-.5-.9-1-1.1-.6-.3-1.8-.7-4.3-.8-2.2-.1-5.2-.2-8.9-.2h-7.2c-3.9,0-7,0-9.3.2-2.6.2-3.8.5-4.5.8-.6.3-.9.6-1.1,1.1-.2.6-.5,1.9-.5,4.2v2.5h-11.5v-2.5c0-3.2.4-5.8,1.1-8,.8-2.4,2.4-4.4,4.6-5.7,2-1.3,4.7-2.1,8.2-2.6,3.2-.4,7.4-.7,12.5-.7h7.9c4.9,0,9,.2,12.1.7,3.4.5,6.1,1.3,8.1,2.6,2.2,1.4,3.7,3.3,4.5,5.7.7,2.2,1.1,4.8,1.1,8s-.6,7.3-1.7,9.8c-1.3,2.8-3.5,4.8-6.6,5.9-2.8,1-6.5,1.5-11.3,1.5h-14.6c-3.8,0-6.9.1-9.1.4-2.5.3-3.5.8-4,1.1-.6.4-.9.9-1.1,1.6-.3,1.2-.4,2.8-.4,4.8h0Z"/>
      <path class="st1" d="M1304.5,422.8c.6-.5,1.1-1.2,1.6-1.8,1.6-2.3,2.4-5.3,2.4-9.3s-.4-5.8-1.1-8c-.8-2.4-2.4-4.4-4.6-5.7-2-1.3-4.7-2.1-8.3-2.6-3.2-.4-7.4-.7-12.5-.7h-7.9c-5.1,0-9.3.2-12.5.7-3.5.5-6.2,1.3-8.3,2.6-2.2,1.4-3.8,3.3-4.6,5.7-.8,2.2-1.1,4.8-1.1,8s.8,7,2.4,9.3c.5.7,1,1.3,1.6,1.8-.6.6-1.2,1.2-1.7,2-1.6,2.3-2.4,5.5-2.4,9.6s.3,5.9.9,8.2c.7,2.6,2.1,4.7,4.2,6.2,2,1.5,4.6,2.5,8.1,3.1,3.2.5,7.4.8,12.4.8h9.5c5.1,0,9.3-.3,12.4-.8,3.5-.6,6.1-1.6,8.1-3.1,2.1-1.5,3.5-3.6,4.2-6.2.6-2.2.9-5,.9-8.2s-.8-7.3-2.4-9.6c-.5-.8-1.1-1.4-1.7-2h0ZM1282.5,442.1h-8.9c-3.8,0-6.9-.1-9.1-.4-2.5-.3-3.6-.8-4-1.1-.6-.4-.9-.8-1-1.5-.3-1.2-.4-2.7-.4-4.7s.1-3.1.4-4.1c.1-.5.4-.9.9-1.1.4-.2,1.5-.7,4-.9,2.2-.2,5.2-.3,9.1-.3h9.2c3.9,0,6.9,0,9.1.3,2.5.2,3.6.7,4,.9.5.3.7.6.9,1.1.3,1,.4,2.3.4,4.1s-.1,3.6-.4,4.7c-.2.7-.5,1.2-1,1.5-.4.3-1.5.8-4,1.1-2.2.2-5.2.4-9.1.4h0ZM1259.6,407.5c.2-.5.5-.9,1.1-1.1.6-.3,1.9-.7,4.5-.8,2.3-.1,5.4-.2,9.3-.2h7.2c3.9,0,7,0,9.3.2,2.6.2,3.8.5,4.5.8.6.3.9.6,1.1,1.1.2.6.5,1.9.5,4.2s-.1,2.8-.3,3.7c-.1.5-.3.7-.7,1-.4.2-1.4.6-3.6.9-2,.2-4.8.3-8.3.3h-11.8c-3.5,0-6.3-.1-8.3-.3-2.3-.2-3.3-.6-3.6-.9-.4-.2-.6-.5-.8-1-.2-.9-.3-2.2-.3-3.7,0-2.3.3-3.5.5-4.2h0Z"/>
      <path class="st1" d="M1374.8,431.1v3.3c0,3.2-.3,6-.9,8.2-.7,2.6-2.1,4.7-4.2,6.2-2,1.5-4.6,2.5-8.1,3.1-3.2.5-7.4.8-12.4.8h-8.2c-5.1,0-9.3-.3-12.4-.8-3.5-.6-6.1-1.6-8.1-3.1-2.1-1.5-3.5-3.6-4.2-6.2-.6-2.2-.9-5-.9-8.2v-2.5h11.4v2.5c0,2,.1,3.6.4,4.7.2.7.5,1.2,1,1.5.4.3,1.5.8,4,1.1,2.2.2,5.3.4,9.1.4h7.5c3.8,0,6.9-.1,9.1-.4,2.5-.3,3.6-.8,4-1,.6-.4.9-.8,1-1.5.3-1.2.4-2.8.4-4.8v-3.3c0-1.7-.1-3.1-.4-4.1-.1-.5-.4-.9-.9-1.1-.4-.2-1.5-.7-4-.9-2.2-.2-5.2-.3-9.1-.3h-7c-4.8,0-8.3.2-10.5.5-2.3.3-3,1-3.2,1.2l-.8,1h-11.3v-31.6h56.4v10.4h-44.9v9.4c2.2-.9,5-1.3,8.4-1.3h15.3c4.7,0,8.6.3,11.6.8,3.2.6,5.7,1.6,7.4,3,1.9,1.5,3.1,3.4,3.7,5.8.5,2,.8,4.5.8,7.3h0Z"/>
      <polygon class="st1" points="1432.7 441.7 1432.7 452.1 1383.2 452.1 1383.2 441.7 1403.5 441.7 1403.5 406.7 1383.2 406.7 1383.2 396.2 1406 396.2 1408.6 396.2 1414.9 396.2 1414.9 441.7 1432.7 441.7"/>
    </g>
  </g>
</svg>